PathFileType	4	(X/Y/Z)	C:/Users/beibeiliu/ov580/test_trc\sequence.30_training_dense_left.trc
DataRate	CameraRate	NumFrames	NumMarkers	Units	OrigDataRate	OrigDataStartFrame	OrigNumFrames
120	120	11	19	mm	120	222	354
Frame#	Time	ThumbCMC			ThumbMCP			ThumbIP			ThumbTip			IndexMCP			IndexPIP			IndexTip			MiddleMCP			MiddlePIP			MiddleTip			RingMCP			RingPIP			RingTip			PinkyMCP			PinkyPIP			PinkyTip			BackHand1			BackHand2			BackHand3	
		X0	Y0	Z0	X1	Y1	Z1	X2	Y2	Z2	X3	Y3	Z3	X4	Y4	Z4	X5	Y5	Z5	X6	Y6	Z6	X7	Y7	Z7	X8	Y8	Z8	X9	Y9	Z9	X10	Y10	Z10	X11	Y11	Z11	X12	Y12	Z12	X13	Y13	Z13	X14	Y14	Z14	X15	Y15	Z15	X16	Y16	Z16	X17	Y17	Z17	X18	Y18	Z18	
221	1.84167	-181.163	-13.7636	42.6253	-171.727	-19.7563	16.0492	-164.324	-18.0576	-6.42371	-159.23	-18.9298	-24.3512	-185.562	24.137	-12.0051	-183.642	31.6081	-31.7505	-179.983	42.2501	-52.0513	-204.405	15.9266	-24.7184	-215.826	-10.0901	-38.6812	-215.417	-31.5248	-11.9192	-221.637	24.8464	-18.7217	-227.246	18.7048	-41.4466	-230.505	7.35377	-62.8413	-238.68	31.2409	-1.34549	-244.776	39.0269	-12.4614	-248.628	53.7718	-24.4989	-219.426	24.5101	28.8337	-222.177	19.5954	59.3987	-192.499	17.3454	40.1582	
222	1.85	-182.858	-14.8317	41.72	-172.382	-21.1574	14.9121	-164.278	-19.1893	-7.04532	-160.054	-19.6971	-27.5345	-183.158	21.1372	-11.2898	-181.507	27.7086	-31.6616	-178.664	37.7297	-50.8433	-205.357	13.7307	-22.4952	-214.457	-14.1781	-38.4332	-217.018	-34.3427	-12.029	-221.521	22.5223	-20.1946	-227.583	16.6974	-40.8582	-232.204	5.68196	-60.7517	-239.764	25.4976	2.08532	-246.625	37.6952	-15.1492	-249.764	51.7416	-26.233	-221.359	23.8069	29.4194	-219.677	16.2226	56.4968	-197.061	14.5029	43.0897	
223	1.85833	-181.547	-16.691	41.5308	-174.983	-25.2805	19.0017	-169.456	-21.02	-3.57215	-160.05	-23.4694	-24.3509	-184.427	19.317	-13.5785	-185.528	26.4217	-32.8667	-182.749	37.0406	-53.025	-210.491	9.98943	-24.4922	-214.815	-15.2427	-39.7443	-216.061	-39.8307	-14.4296	-222.344	19.4297	-18.7741	-228.516	11.9447	-43.2026	-230.565	2.65914	-59.6702	-239.983	26.4177	-2.41316	-244.054	33.7724	-16.2886	-250.229	48.2598	-26.6919	-218.034	22.1158	30.039	-223.021	18.4529	54.839	-197.962	12.3564	41.1205	
224	1.86667	-184.065	-17.3012	40.6045	-176.62	-22.2968	15.2089	-165.908	-25.9546	-4.36237	-161.092	-25.811	-24.1861	-185.036	17.7773	-15.2978	-185.675	25.4129	-35.8841	-181.264	34.2889	-55.2199	-211.515	6.89963	-26.7258	-219.596	-19.9409	-38.8914	-216.168	-42.8764	-16.1483	-226.085	16.448	-16.2245	-232.188	10.5963	-43.4101	-231.886	0.22989	-60.7492	-244.446	24.5956	-0.775483	-249.169	31.4024	-13.7791	-251.322	46.4016	-27.1182	-222.848	20.2039	31.2856	-222.011	16.0886	57.2282	-194.883	11.8934	39.5539	
225	1.875	-182.33	-18.5764	41.5217	-172.481	-26.0117	18.054	-170.982	-24.5186	-1.2502	-162.255	-24.1019	-26.437	-187.199	17.8648	-17.7151	-183.38	23.1693	-37.2303	-186.22	32.5433	-52.488	-208.873	7.16385	-23.2232	-220.572	-18.2507	-39.2338	-218.946	-42.4381	-18.7508	-228.853	15.625	-21.1404	-228.409	7.93513	-43.0199	-234.093	-1.55652	-59.896	-242.354	21.818	-2.97219	-248.861	29.0898	-15.9971	-253.559	44.59	-26.7616	-222.256	19.7776	31.6163	-222.707	11.9625	57.9521	-196.459	10.0441	40.2815	
226	1.88333	-182.708	-18.6756	40.77	-177.949	-24.4699	16.5401	-167.518	-24.8114	-6.57851	-164.051	-23.3864	-26.9112	-187.001	15.3242	-15.0278	-185.255	23.3608	-35.9361	-183.669	32.3995	-52.3543	-209.875	5.80793	-25.0844	-219.069	-21.4468	-39.0711	-218.232	-43.3623	-16.938	-225.386	14.0398	-20.9009	-232.164	7.40965	-41.9295	-232.82	-4.34781	-62.8455	-245.98	22.7597	-2.28917	-251.772	29.1826	-15.6531	-250.88	40.7987	-27.0641	-225.372	20.0976	28.5804	-220.735	13.2693	55.4735	-198.942	10.4766	42.3682	
227	1.89167	-186.785	-18.1613	42.5826	-178.3	-23.3652	17.65	-172.493	-22.9944	-4.69556	-166.715	-22.4889	-25.5795	-187.56	15.515	-13.7248	-184.219	22.4725	-33.1843	-183.039	33.1199	-55.3008	-208.923	5.69814	-25.3888	-216.986	-21.5994	-40.347	-218.269	-44.4803	-18.3778	-229.835	15.3667	-21.9075	-230.639	7.57406	-43.8171	-234.908	-4.30686	-63.4189	-243.782	19.916	0.191877	-250.743	27.1374	-12.7297	-255.62	41.2387	-23.7792	-220.703	20.9914	28.3347	-223.813	13.0791	55.2999	-194.906	12.2684	39.9855	
228	1.9	-185.961	-16.8663	43.0921	-179.062	-23.8617	19.6883	-173.45	-22.8695	-3.4259	-163.23	-24.0541	-24.575	-190.213	18.1769	-16.6879	-187.2	23.946	-34.0519	-182.479	34.6797	-55.9585	-211.542	6.77529	-25.9987	-219.4	-18.8993	-39.7269	-221.387	-41.4544	-20.2461	-232.144	15.7235	-16.5146	-230.889	8.17294	-42.6437	-233.597	-1.19046	-58.8431	-247.818	20.2375	1.07811	-253.328	30.9949	-16.1206	-253.431	41.4055	-29.3373	-225.584	20.5408	30.0428	-223.258	14.635	55.9467	-197.391	11.6225	42.3552	
229	1.90833	-188.394	-15.0507	42.0445	-179.327	-23.3597	19.3586	-173.807	-21.4267	-3.45251	-165.023	-20.3456	-27.118	-187.042	18.1883	-14.2801	-186.603	24.7448	-34.37	-185.61	33.3865	-53.3101	-210.712	9.41775	-22.756	-218.232	-18.6441	-40.929	-223.219	-39.6756	-21.2371	-231.846	17.8488	-19.4874	-235.541	9.98924	-41.7653	-238.064	-2.14775	-62.7219	-248.811	23.5548	-2.45752	-252.142	28.3235	-12.3472	-257.375	43.5818	-25.9263	-225.164	19.1274	30.649	-227.529	15.3816	56.8579	-202.196	14.7866	39.0553	
230	1.91667	-187.897	-14.0333	42.0128	-180.679	-18.0488	14.7408	-174.179	-18.2968	-5.62481	-167.2	-17.4701	-26.8581	-189.939	20.2894	-13.2583	-189.562	27.6783	-36.2595	-188.937	37.2502	-55.6602	-217.052	12.6216	-23.5411	-219.562	-14.5901	-40.9907	-220.24	-39.5008	-17.4733	-229.119	18.074	-19.1347	-237.304	13.1631	-39.2205	-234.917	1.63223	-59.4273	-250.469	23.7422	0.776527	-253.678	32.7883	-16.4985	-258.533	45.2424	-28.5432	-226.627	23.5731	28.9071	-223.59	15.6631	53.5156	-202.276	16.4691	40.704	
231	1.925	-189.364	-10.8775	39.1935	-177.162	-18.0806	14.033	-173.84	-16.1357	-6.99968	-166.21	-18.5023	-25.4035	-188.892	21.9127	-16.4792	-188.667	27.6333	-35.6866	-191.426	39.6944	-58.8244	-212.373	11.5413	-26.4057	-219.75	-15.5295	-39.4371	-221.518	-38.3857	-17.1818	-231.5	20.2526	-20.1927	-238.781	13.7148	-40.2472	-237.711	2.16212	-60.5209	-247.545	23.2809	0.906713	-253.666	31.6444	-15.2702	-258.456	43.8298	-24.5539	-225.862	24.6397	29.8545	-225.748	18.3674	54.7147	-202.197	17.2057	40.2313	
